<svg
      width="288"
      height="40"
      viewBox="0 0 115 16"
      fill="none"
      xmlns="http://www.w3.org/2000/svg"
    >
      <rect width="115" height="16" fill="" />
      <g clip-path="url(#clip0_0_1)">
        <path
          d="M8 0C3.589 0 0 3.589 0 8C0 11.291 2.063 14.288 5.132 15.457C5.19576 15.481 5.26374 15.4917 5.33178 15.4885C5.39982 15.4854 5.46651 15.4684 5.52779 15.4387C5.58907 15.4089 5.64365 15.367 5.68821 15.3155C5.73277 15.264 5.76638 15.2039 5.787 15.139L7.287 10.349C7.32146 10.2391 7.31689 10.1206 7.27407 10.0136C7.23125 9.90668 7.1528 9.81779 7.052 9.762C6.7351 9.58922 6.47033 9.33462 6.2853 9.02471C6.10027 8.7148 6.00175 8.36094 6 8C6 6.897 6.897 6 8 6C9.103 6 10 6.897 10 8C10 8.729 9.597 9.404 8.948 9.763C8.84693 9.81851 8.76825 9.90737 8.72539 10.0144C8.68253 10.1215 8.67815 10.2401 8.713 10.35L10.213 15.14C10.2336 15.2049 10.2672 15.265 10.3118 15.3165C10.3564 15.368 10.4109 15.4099 10.4722 15.4397C10.5335 15.4694 10.6002 15.4864 10.6682 15.4895C10.7363 15.4927 10.8042 15.482 10.868 15.458C13.938 14.288 16 11.291 16 8C16 3.589 12.411 0 8 0Z"
          fill="#4CAF50"
        />
      </g>
      <path
        d="M20.7585 12V3.27273H26.5369V4.79403H22.6037V6.87358H26.1534V8.39489H22.6037V12H20.7585ZM35.7979 7.63636C35.7979 8.58807 35.6175 9.39773 35.2567 10.0653C34.8988 10.733 34.4102 11.2429 33.7908 11.5952C33.1744 11.9446 32.4812 12.1193 31.7113 12.1193C30.9357 12.1193 30.2397 11.9432 29.6232 11.5909C29.0067 11.2386 28.5195 10.7287 28.1616 10.0611C27.8036 9.39347 27.6246 8.58523 27.6246 7.63636C27.6246 6.68466 27.8036 5.875 28.1616 5.20739C28.5195 4.53977 29.0067 4.03125 29.6232 3.68182C30.2397 3.32955 30.9357 3.15341 31.7113 3.15341C32.4812 3.15341 33.1744 3.32955 33.7908 3.68182C34.4102 4.03125 34.8988 4.53977 35.2567 5.20739C35.6175 5.875 35.7979 6.68466 35.7979 7.63636ZM33.9272 7.63636C33.9272 7.01989 33.8349 6.5 33.6502 6.0767C33.4684 5.65341 33.2113 5.33239 32.8789 5.11364C32.5465 4.89489 32.1573 4.78551 31.7113 4.78551C31.2653 4.78551 30.8761 4.89489 30.5437 5.11364C30.2113 5.33239 29.9528 5.65341 29.7681 6.0767C29.5863 6.5 29.4954 7.01989 29.4954 7.63636C29.4954 8.25284 29.5863 8.77273 29.7681 9.19602C29.9528 9.61932 30.2113 9.94034 30.5437 10.1591C30.8761 10.3778 31.2653 10.4872 31.7113 10.4872C32.1573 10.4872 32.5465 10.3778 32.8789 10.1591C33.2113 9.94034 33.4684 9.61932 33.6502 9.19602C33.8349 8.77273 33.9272 8.25284 33.9272 7.63636ZM41.8991 5.78267C41.8651 5.43892 41.7188 5.17187 41.4602 4.98153C41.2017 4.79119 40.8509 4.69602 40.4077 4.69602C40.1065 4.69602 39.8523 4.73864 39.6449 4.82386C39.4375 4.90625 39.2784 5.02131 39.1676 5.16903C39.0597 5.31676 39.0057 5.48438 39.0057 5.67188C39 5.82812 39.0327 5.96449 39.1037 6.08097C39.1776 6.19744 39.2784 6.2983 39.4062 6.38352C39.5341 6.46591 39.6818 6.53835 39.8494 6.60085C40.017 6.66051 40.196 6.71165 40.3864 6.75426L41.1705 6.94176C41.5511 7.02699 41.9006 7.14062 42.2188 7.28267C42.5369 7.42472 42.8125 7.59943 43.0455 7.80682C43.2784 8.0142 43.4588 8.25852 43.5866 8.53977C43.7173 8.82102 43.7841 9.14347 43.7869 9.5071C43.7841 10.0412 43.6477 10.5043 43.3778 10.8963C43.1108 11.2855 42.7244 11.5881 42.2188 11.804C41.7159 12.017 41.1094 12.1236 40.3991 12.1236C39.6946 12.1236 39.081 12.0156 38.5582 11.7997C38.0384 11.5838 37.6321 11.2642 37.3395 10.8409C37.0497 10.4148 36.8977 9.88778 36.8835 9.25994H38.669C38.6889 9.55256 38.7727 9.79687 38.9205 9.9929C39.071 10.1861 39.2713 10.3324 39.5213 10.4318C39.7741 10.5284 40.0597 10.5767 40.3778 10.5767C40.6903 10.5767 40.9616 10.5312 41.1918 10.4403C41.4247 10.3494 41.6051 10.223 41.733 10.0611C41.8608 9.89915 41.9247 9.71307 41.9247 9.50284C41.9247 9.30682 41.8665 9.14205 41.75 9.00852C41.6364 8.875 41.4688 8.76136 41.2472 8.66761C41.0284 8.57386 40.7599 8.48864 40.4418 8.41193L39.4915 8.1733C38.7557 7.99432 38.1747 7.71449 37.7486 7.33381C37.3224 6.95312 37.1108 6.44034 37.1136 5.79545C37.1108 5.26705 37.2514 4.8054 37.5355 4.41051C37.8224 4.01562 38.2159 3.70739 38.7159 3.4858C39.2159 3.2642 39.7841 3.15341 40.4205 3.15341C41.0682 3.15341 41.6335 3.2642 42.1165 3.4858C42.6023 3.70739 42.9801 4.01562 43.25 4.41051C43.5199 4.8054 43.6591 5.26278 43.6676 5.78267H41.8991ZM49.7624 5.78267C49.7283 5.43892 49.582 5.17187 49.3235 4.98153C49.065 4.79119 48.7141 4.69602 48.271 4.69602C47.9698 4.69602 47.7156 4.73864 47.5082 4.82386C47.3008 4.90625 47.1417 5.02131 47.0309 5.16903C46.9229 5.31676 46.869 5.48438 46.869 5.67188C46.8633 5.82812 46.896 5.96449 46.967 6.08097C47.0408 6.19744 47.1417 6.2983 47.2695 6.38352C47.3974 6.46591 47.5451 6.53835 47.7127 6.60085C47.8803 6.66051 48.0593 6.71165 48.2496 6.75426L49.0337 6.94176C49.4144 7.02699 49.7638 7.14062 50.082 7.28267C50.4002 7.42472 50.6758 7.59943 50.9087 7.80682C51.1417 8.0142 51.3221 8.25852 51.4499 8.53977C51.5806 8.82102 51.6474 9.14347 51.6502 9.5071C51.6474 10.0412 51.511 10.5043 51.2411 10.8963C50.9741 11.2855 50.5877 11.5881 50.082 11.804C49.5792 12.017 48.9727 12.1236 48.2624 12.1236C47.5579 12.1236 46.9442 12.0156 46.4215 11.7997C45.9016 11.5838 45.4954 11.2642 45.2028 10.8409C44.913 10.4148 44.761 9.88778 44.7468 9.25994H46.5323C46.5522 9.55256 46.636 9.79687 46.7837 9.9929C46.9343 10.1861 47.1346 10.3324 47.3846 10.4318C47.6374 10.5284 47.9229 10.5767 48.2411 10.5767C48.5536 10.5767 48.8249 10.5312 49.055 10.4403C49.288 10.3494 49.4684 10.223 49.5962 10.0611C49.7241 9.89915 49.788 9.71307 49.788 9.50284C49.788 9.30682 49.7298 9.14205 49.6133 9.00852C49.4996 8.875 49.332 8.76136 49.1104 8.66761C48.8917 8.57386 48.6232 8.48864 48.305 8.41193L47.3548 8.1733C46.619 7.99432 46.038 7.71449 45.6119 7.33381C45.1857 6.95312 44.9741 6.44034 44.9769 5.79545C44.9741 5.26705 45.1147 4.8054 45.3988 4.41051C45.6857 4.01562 46.0792 3.70739 46.5792 3.4858C47.0792 3.2642 47.6474 3.15341 48.2837 3.15341C48.9315 3.15341 49.4968 3.2642 49.9798 3.4858C50.4656 3.70739 50.8434 4.01562 51.1133 4.41051C51.3832 4.8054 51.5224 5.26278 51.5309 5.78267H49.7624ZM60.5916 6.32812H58.7251C58.6911 6.08665 58.6214 5.87216 58.5163 5.68466C58.4112 5.49432 58.2763 5.33239 58.1115 5.19886C57.9467 5.06534 57.7564 4.96307 57.5405 4.89205C57.3274 4.82102 57.0959 4.78551 56.8459 4.78551C56.3942 4.78551 56.0007 4.89773 55.6655 5.12216C55.3303 5.34375 55.0703 5.66761 54.8857 6.09375C54.701 6.51705 54.6087 7.03125 54.6087 7.63636C54.6087 8.25852 54.701 8.78125 54.8857 9.20455C55.0732 9.62784 55.3345 9.94744 55.6697 10.1634C56.005 10.3793 56.3928 10.4872 56.8331 10.4872C57.0803 10.4872 57.3089 10.4545 57.5192 10.3892C57.7322 10.3239 57.9212 10.2287 58.0859 10.1037C58.2507 9.97585 58.3871 9.82102 58.495 9.6392C58.6058 9.45739 58.6825 9.25 58.7251 9.01705L60.5916 9.02557C60.5433 9.42614 60.4226 9.8125 60.2294 10.1847C60.0391 10.554 59.782 10.8849 59.4581 11.1776C59.1371 11.4673 58.7536 11.6974 58.3075 11.8679C57.8643 12.0355 57.3629 12.1193 56.8033 12.1193C56.0249 12.1193 55.3288 11.9432 54.7152 11.5909C54.1044 11.2386 53.6214 10.7287 53.2663 10.0611C52.9141 9.39347 52.7379 8.58523 52.7379 7.63636C52.7379 6.68466 52.9169 5.875 53.2749 5.20739C53.6328 4.53977 54.1186 4.03125 54.7322 3.68182C55.3459 3.32955 56.0362 3.15341 56.8033 3.15341C57.3089 3.15341 57.7777 3.22443 58.2095 3.36648C58.6442 3.50852 59.0291 3.71591 59.3643 3.98864C59.6996 4.25852 59.9723 4.58949 60.1825 4.98153C60.3956 5.37358 60.532 5.82244 60.5916 6.32812ZM64.8381 12.1278C64.1761 12.1278 63.6037 11.9872 63.1207 11.706C62.6406 11.4219 62.2699 11.027 62.0085 10.5213C61.7472 10.0128 61.6165 9.4233 61.6165 8.75284C61.6165 8.0767 61.7472 7.4858 62.0085 6.98011C62.2699 6.47159 62.6406 6.0767 63.1207 5.79545C63.6037 5.51136 64.1761 5.36932 64.8381 5.36932C65.5 5.36932 66.071 5.51136 66.5511 5.79545C67.0341 6.0767 67.4062 6.47159 67.6676 6.98011C67.929 7.4858 68.0597 8.0767 68.0597 8.75284C68.0597 9.4233 67.929 10.0128 67.6676 10.5213C67.4062 11.027 67.0341 11.4219 66.5511 11.706C66.071 11.9872 65.5 12.1278 64.8381 12.1278ZM64.8466 10.7216C65.1477 10.7216 65.3991 10.6364 65.6009 10.4659C65.8026 10.2926 65.9545 10.0568 66.0568 9.75852C66.1619 9.46023 66.2145 9.12074 66.2145 8.74006C66.2145 8.35938 66.1619 8.01989 66.0568 7.72159C65.9545 7.4233 65.8026 7.1875 65.6009 7.0142C65.3991 6.84091 65.1477 6.75426 64.8466 6.75426C64.5426 6.75426 64.2869 6.84091 64.0795 7.0142C63.875 7.1875 63.7202 7.4233 63.6151 7.72159C63.5128 8.01989 63.4616 8.35938 63.4616 8.74006C63.4616 9.12074 63.5128 9.46023 63.6151 9.75852C63.7202 10.0568 63.875 10.2926 64.0795 10.4659C64.2869 10.6364 64.5426 10.7216 64.8466 10.7216ZM71.0554 8.21591V12H69.2401V5.45455H70.9702V6.60938H71.0469C71.1918 6.22869 71.4347 5.92756 71.7756 5.70597C72.1165 5.48153 72.5298 5.36932 73.0156 5.36932C73.4702 5.36932 73.8665 5.46875 74.2045 5.66761C74.5426 5.86648 74.8054 6.15057 74.9929 6.51989C75.1804 6.88636 75.2741 7.32386 75.2741 7.83239V12H73.4588V8.15625C73.4616 7.75568 73.3594 7.44318 73.152 7.21875C72.9446 6.99148 72.6591 6.87784 72.2955 6.87784C72.0511 6.87784 71.8352 6.9304 71.6477 7.03551C71.4631 7.14062 71.3182 7.29403 71.2131 7.49574C71.1108 7.6946 71.0582 7.93466 71.0554 8.21591ZM80.2248 5.45455V6.81818H76.185V5.45455H80.2248ZM77.1097 12V4.98153C77.1097 4.5071 77.2021 4.11364 77.3867 3.80114C77.5742 3.48864 77.8299 3.25426 78.1538 3.09801C78.4776 2.94176 78.8455 2.86364 79.2575 2.86364C79.5359 2.86364 79.7901 2.88494 80.0202 2.92756C80.2532 2.97017 80.4265 3.00852 80.5401 3.04261L80.2163 4.40625C80.1452 4.38352 80.0572 4.36222 79.9521 4.34233C79.8498 4.32244 79.7447 4.3125 79.6367 4.3125C79.3697 4.3125 79.1836 4.375 79.0785 4.5C78.9734 4.62216 78.9208 4.79403 78.9208 5.01562V12H77.1097ZM84.0941 12V10.6705L87.2006 7.79403C87.4648 7.53835 87.6864 7.30824 87.8654 7.10369C88.0472 6.89915 88.185 6.69886 88.2788 6.50284C88.3725 6.30398 88.4194 6.08949 88.4194 5.85938C88.4194 5.60369 88.3612 5.38352 88.2447 5.19886C88.1282 5.01136 87.9691 4.8679 87.7674 4.76847C87.5657 4.66619 87.337 4.61506 87.0813 4.61506C86.8143 4.61506 86.5813 4.66903 86.3825 4.77699C86.1836 4.88494 86.0302 5.03977 85.9222 5.24148C85.8143 5.44318 85.7603 5.68324 85.7603 5.96165H84.0089C84.0089 5.39062 84.1381 4.89489 84.3967 4.47443C84.6552 4.05398 85.0174 3.72869 85.4833 3.49858C85.9492 3.26847 86.4862 3.15341 87.0941 3.15341C87.7191 3.15341 88.2631 3.2642 88.7262 3.4858C89.1921 3.70455 89.5543 4.00852 89.8129 4.39773C90.0714 4.78693 90.2006 5.23295 90.2006 5.7358C90.2006 6.06534 90.1353 6.39062 90.0046 6.71165C89.8768 7.03267 89.6481 7.3892 89.3185 7.78125C88.989 8.17045 88.5245 8.63778 87.9251 9.18324L86.6509 10.4318V10.4915H90.3157V12H84.0941ZM95.0746 12.1918C94.3416 12.1889 93.7109 12.0085 93.1825 11.6506C92.657 11.2926 92.2521 10.7741 91.968 10.0952C91.6868 9.41619 91.5476 8.59943 91.5504 7.64489C91.5504 6.69318 91.6911 5.8821 91.9723 5.21165C92.2564 4.54119 92.6612 4.03125 93.1868 3.68182C93.7152 3.32955 94.3445 3.15341 95.0746 3.15341C95.8047 3.15341 96.4325 3.32955 96.9581 3.68182C97.4865 4.03409 97.8928 4.54545 98.1768 5.21591C98.4609 5.88352 98.6016 6.69318 98.5987 7.64489C98.5987 8.60227 98.4567 9.42045 98.1726 10.0994C97.8913 10.7784 97.4879 11.2969 96.9624 11.6548C96.4368 12.0128 95.8075 12.1918 95.0746 12.1918ZM95.0746 10.6619C95.5746 10.6619 95.9737 10.4105 96.272 9.90767C96.5703 9.40483 96.718 8.65057 96.7152 7.64489C96.7152 6.98295 96.647 6.43182 96.5107 5.99148C96.3771 5.55114 96.1868 5.22017 95.9396 4.99858C95.6953 4.77699 95.407 4.66619 95.0746 4.66619C94.5774 4.66619 94.1797 4.91477 93.8814 5.41193C93.5831 5.90909 93.4325 6.65341 93.4297 7.64489C93.4297 8.31534 93.4964 8.875 93.63 9.32386C93.7663 9.76989 93.9581 10.1051 94.2053 10.3295C94.4524 10.5511 94.7422 10.6619 95.0746 10.6619ZM99.9144 12V10.6705L103.021 7.79403C103.285 7.53835 103.507 7.30824 103.686 7.10369C103.868 6.89915 104.005 6.69886 104.099 6.50284C104.193 6.30398 104.24 6.08949 104.24 5.85938C104.24 5.60369 104.181 5.38352 104.065 5.19886C103.949 5.01136 103.789 4.8679 103.588 4.76847C103.386 4.66619 103.157 4.61506 102.902 4.61506C102.635 4.61506 102.402 4.66903 102.203 4.77699C102.004 4.88494 101.85 5.03977 101.743 5.24148C101.635 5.44318 101.581 5.68324 101.581 5.96165H99.8292C99.8292 5.39062 99.9585 4.89489 100.217 4.47443C100.475 4.05398 100.838 3.72869 101.304 3.49858C101.77 3.26847 102.306 3.15341 102.914 3.15341C103.539 3.15341 104.083 3.2642 104.547 3.4858C105.012 3.70455 105.375 4.00852 105.633 4.39773C105.892 4.78693 106.021 5.23295 106.021 5.7358C106.021 6.06534 105.956 6.39062 105.825 6.71165C105.697 7.03267 105.468 7.3892 105.139 7.78125C104.809 8.17045 104.345 8.63778 103.745 9.18324L102.471 10.4318V10.4915H106.136V12H99.9144ZM110.699 12.1193C110.063 12.1193 109.496 12.0099 108.999 11.7912C108.504 11.5696 108.114 11.2656 107.827 10.8793C107.543 10.4901 107.396 10.0412 107.388 9.53267H109.246C109.257 9.74574 109.327 9.93324 109.455 10.0952C109.585 10.2543 109.759 10.3778 109.974 10.4659C110.19 10.554 110.433 10.598 110.703 10.598C110.984 10.598 111.233 10.5483 111.449 10.4489C111.665 10.3494 111.834 10.2116 111.956 10.0355C112.078 9.85937 112.139 9.65625 112.139 9.42614C112.139 9.19318 112.074 8.98722 111.943 8.80824C111.815 8.62642 111.631 8.48437 111.389 8.3821C111.151 8.27983 110.866 8.22869 110.537 8.22869H109.723V6.87358H110.537C110.815 6.87358 111.061 6.82528 111.274 6.72869C111.49 6.6321 111.658 6.49858 111.777 6.32812C111.896 6.15483 111.956 5.95312 111.956 5.72301C111.956 5.50426 111.903 5.3125 111.798 5.14773C111.696 4.98011 111.551 4.84943 111.364 4.75568C111.179 4.66193 110.963 4.61506 110.716 4.61506C110.466 4.61506 110.237 4.66051 110.03 4.75142C109.822 4.83949 109.656 4.96591 109.531 5.13068C109.406 5.29545 109.339 5.48864 109.331 5.71023H107.562C107.571 5.20739 107.714 4.7642 107.993 4.38068C108.271 3.99716 108.646 3.69744 109.118 3.48153C109.592 3.26278 110.128 3.15341 110.724 3.15341C111.327 3.15341 111.854 3.26278 112.305 3.48153C112.757 3.70028 113.108 3.99574 113.358 4.3679C113.611 4.73722 113.736 5.15199 113.733 5.61222C113.736 6.10085 113.584 6.50852 113.277 6.83523C112.973 7.16193 112.577 7.36932 112.088 7.45739V7.52557C112.73 7.60795 113.219 7.83097 113.554 8.1946C113.892 8.5554 114.06 9.0071 114.057 9.54972C114.06 10.0469 113.916 10.4886 113.626 10.875C113.339 11.2614 112.943 11.5653 112.438 11.7869C111.932 12.0085 111.352 12.1193 110.699 12.1193Z"
        fill="white"
      />
      <defs>
        <clipPath id="clip0_0_1">
          <rect width="16" height="16" fill="white" />
        </clipPath>
      </defs>
    </svg>