<?xml version="1.0" encoding="UTF-8"?>
<svg xmlns="http://www.w3.org/2000/svg" xmlns:xlink="http://www.w3.org/1999/xlink" width="12px" height="7px" viewBox="0 0 3 2" version="1.1">
<g id="surface1" style="transform:scale(0.5)">
<path style="stroke:none;fill-rule:nonzero;fill:rgb(100%,100%,100%);fill-opacity:1;" d="M 2.992188 0.488281 C 2.992188 0.226562 2.808594 0 2.578125 0 L 0.746094 0 C 0.632812 0 0.527344 0.0507812 0.445312 0.140625 C 0.363281 0.234375 0.320312 0.355469 0.320312 0.484375 C 0.320312 0.535156 0.328125 0.589844 0.34375 0.636719 C 0.261719 0.65625 0.1875 0.703125 0.128906 0.765625 C 0.046875 0.859375 0 0.992188 0 1.132812 C 0 1.277344 0.046875 1.40625 0.128906 1.503906 C 0.1875 1.566406 0.289062 1.640625 0.441406 1.640625 L 0.734375 1.640625 C 0.8125 1.640625 0.890625 1.617188 0.953125 1.574219 C 0.964844 1.683594 1.011719 1.789062 1.082031 1.867188 C 1.160156 1.953125 1.265625 2 1.375 2 C 1.535156 2 1.679688 1.933594 1.796875 1.816406 C 1.863281 1.75 1.914062 1.671875 1.960938 1.582031 C 2.015625 1.609375 2.074219 1.625 2.136719 1.625 L 2.585938 1.625 C 2.8125 1.625 3 1.414062 3 1.152344 Z M 0.445312 1.261719 C 0.378906 1.261719 0.339844 1.222656 0.339844 1.140625 C 0.339844 1.054688 0.378906 1.015625 0.445312 1.015625 C 0.511719 1.015625 0.550781 1.054688 0.550781 1.140625 C 0.550781 1.222656 0.511719 1.261719 0.445312 1.261719 Z M 1.199219 1.261719 C 1.171875 1.261719 1.144531 1.25 1.128906 1.222656 C 1.078125 1.140625 0.96875 0.96875 0.96875 0.96875 C 0.96875 0.96875 0.859375 1.144531 0.808594 1.222656 C 0.792969 1.246094 0.761719 1.261719 0.738281 1.261719 C 0.6875 1.261719 0.648438 1.21875 0.648438 1.160156 C 0.648438 1.132812 0.65625 1.117188 0.667969 1.101562 L 0.863281 0.820312 L 0.671875 0.550781 C 0.65625 0.53125 0.652344 0.511719 0.652344 0.492188 C 0.652344 0.433594 0.691406 0.390625 0.742188 0.390625 C 0.769531 0.390625 0.796875 0.40625 0.8125 0.429688 L 0.964844 0.667969 L 1.117188 0.429688 C 1.132812 0.40625 1.160156 0.390625 1.1875 0.390625 C 1.238281 0.390625 1.277344 0.433594 1.277344 0.492188 C 1.277344 0.515625 1.273438 0.53125 1.257812 0.550781 L 1.066406 0.820312 L 1.261719 1.101562 C 1.273438 1.117188 1.277344 1.132812 1.277344 1.160156 C 1.28125 1.21875 1.242188 1.261719 1.199219 1.261719 Z M 2.019531 0.527344 L 1.71875 1.304688 C 1.648438 1.488281 1.542969 1.617188 1.382812 1.617188 C 1.335938 1.617188 1.296875 1.578125 1.296875 1.523438 C 1.296875 1.472656 1.335938 1.429688 1.382812 1.429688 C 1.484375 1.429688 1.535156 1.339844 1.585938 1.183594 L 1.335938 0.527344 C 1.332031 0.519531 1.328125 0.503906 1.328125 0.488281 C 1.328125 0.429688 1.367188 0.386719 1.417969 0.386719 C 1.464844 0.386719 1.492188 0.425781 1.5 0.453125 L 1.675781 0.964844 L 1.851562 0.453125 C 1.859375 0.425781 1.882812 0.386719 1.933594 0.386719 C 1.980469 0.386719 2.019531 0.429688 2.019531 0.488281 C 2.019531 0.507812 2.019531 0.519531 2.019531 0.527344 Z M 2.589844 1.246094 L 2.140625 1.246094 C 2.101562 1.246094 2.066406 1.207031 2.066406 1.160156 C 2.066406 1.136719 2.074219 1.121094 2.085938 1.105469 L 2.277344 0.808594 L 2.402344 0.625 L 2.433594 0.578125 L 2.164062 0.578125 C 2.125 0.578125 2.089844 0.539062 2.089844 0.492188 C 2.089844 0.449219 2.121094 0.40625 2.164062 0.40625 L 2.578125 0.40625 C 2.621094 0.40625 2.65625 0.449219 2.65625 0.496094 C 2.65625 0.519531 2.648438 0.539062 2.640625 0.550781 L 2.296875 1.078125 L 2.589844 1.078125 C 2.628906 1.078125 2.664062 1.117188 2.664062 1.160156 C 2.664062 1.207031 2.632812 1.246094 2.589844 1.246094 Z M 2.589844 1.246094 "/>
</g>
</svg>
