<svg width="1248" height="219" viewBox="0 0 1248 219" fill="none" xmlns="http://www.w3.org/2000/svg">
<path d="M404.792 67.2332L376.256 147.306C376.125 147.693 375.868 148.025 375.525 148.25C375.182 148.475 374.773 148.579 374.363 148.547H372.201C371.79 148.563 371.383 148.453 371.038 148.23C370.693 148.008 370.425 147.685 370.272 147.306L348.879 91.1478L327.522 147.306C327.38 147.686 327.12 148.01 326.779 148.234C326.439 148.457 326.036 148.566 325.628 148.547H323.431C323.023 148.57 322.618 148.461 322.277 148.238C321.936 148.014 321.677 147.688 321.538 147.306L293.002 67.2613C292.564 66.0203 293.038 65.2491 294.253 65.2491H303.084C303.5 65.2074 303.918 65.3076 304.268 65.5332C304.619 65.7588 304.882 66.0964 305.013 66.4901L325.353 127.114L346.032 71.5941C346.181 71.2118 346.447 70.8859 346.794 70.663C347.14 70.4401 347.549 70.3317 347.961 70.3532H349.819C350.227 70.3327 350.63 70.442 350.971 70.6653C351.312 70.8885 351.571 71.214 351.712 71.5941L373.006 127.114L392.873 66.4901C393.004 66.0964 393.267 65.7588 393.618 65.5332C393.968 65.3076 394.386 65.2074 394.802 65.2491H403.499C404.749 65.2491 405.223 66.0203 404.785 67.2332" fill="white"/>
<path d="M528.984 106.232C528.905 114.479 526.368 122.518 521.693 129.337C517.018 136.156 510.414 141.449 502.714 144.551C495.013 147.652 486.559 148.423 478.418 146.766C470.277 145.109 462.812 141.098 456.963 135.238C451.115 129.379 447.144 121.933 445.552 113.838C443.959 105.744 444.816 97.3628 448.015 89.7507C451.213 82.1386 456.61 75.6361 463.526 71.062C470.441 66.488 478.566 64.0471 486.877 64.0467C492.462 63.9688 498.006 65.0097 503.177 67.1072C508.348 69.2047 513.039 72.3157 516.97 76.254C520.901 80.1924 523.991 84.8772 526.055 90.0281C528.12 95.179 529.116 100.69 528.984 106.232V106.232ZM517.306 106.232C517.306 86.8185 504.546 73.4484 486.877 73.4484C469.207 73.4484 456.448 86.8185 456.448 106.232C456.448 125.645 469.207 139.016 486.877 139.016C504.546 139.016 517.306 125.645 517.306 106.232Z" fill="white"/>
<path d="M640.485 143.887C640.754 144.196 640.922 144.579 640.967 144.985C641.013 145.391 640.933 145.801 640.738 146.161C640.544 146.521 640.244 146.814 639.878 147.001C639.513 147.188 639.098 147.261 638.69 147.21H630.735C630.476 147.202 630.223 147.131 629.999 147.003C629.774 146.874 629.586 146.693 629.449 146.474L609.484 116.579H588.027V145.535C588.022 145.979 587.841 146.404 587.524 146.718C587.208 147.033 586.78 147.212 586.332 147.217H578.56C578.113 147.21 577.687 147.03 577.372 146.716C577.056 146.402 576.877 145.978 576.871 145.535V66.9341C576.879 66.4913 577.059 66.0685 577.374 65.7547C577.689 65.4409 578.114 65.2605 578.56 65.2515H609.123C630.516 65.2515 641.078 76.406 641.078 90.9118C641.208 96.6758 639.257 102.296 635.575 106.756C631.894 111.217 626.727 114.224 621.007 115.233L640.485 143.887ZM606.94 107.177C623.762 107.177 629.414 100.257 629.414 90.9188C629.414 81.5801 623.762 74.6603 606.94 74.6603H588.02V107.177H606.94Z" fill="white"/>
<path d="M771.932 63.931H774.468C774.694 63.9166 774.922 63.9503 775.134 64.0297C775.346 64.1092 775.539 64.2327 775.699 64.3919C775.86 64.5511 775.984 64.7424 776.064 64.9531C776.144 65.1638 776.178 65.389 776.164 65.6137V145.539C776.178 145.764 776.144 145.989 776.064 146.2C775.984 146.411 775.86 146.602 775.699 146.761C775.539 146.92 775.346 147.044 775.134 147.123C774.922 147.203 774.694 147.236 774.468 147.222H766.697C766.47 147.236 766.243 147.203 766.031 147.123C765.819 147.044 765.626 146.92 765.465 146.761C765.305 146.602 765.181 146.411 765.101 146.2C765.021 145.989 764.986 145.764 765.001 145.539V88.7991L733.689 133.775C733.587 133.997 733.422 134.186 733.215 134.318C733.007 134.45 732.766 134.52 732.52 134.52C732.273 134.52 732.032 134.45 731.825 134.318C731.618 134.186 731.453 133.997 731.35 133.775L700.045 88.7991V145.532C700.06 145.757 700.026 145.982 699.946 146.193C699.866 146.404 699.742 146.595 699.581 146.754C699.421 146.913 699.228 147.037 699.016 147.116C698.803 147.196 698.576 147.229 698.35 147.215H690.578C690.352 147.229 690.125 147.196 689.913 147.116C689.701 147.037 689.508 146.913 689.347 146.754C689.187 146.595 689.062 146.404 688.982 146.193C688.902 145.982 688.868 145.757 688.883 145.532V65.6067C688.868 65.382 688.902 65.1568 688.982 64.9461C689.062 64.7354 689.187 64.5441 689.347 64.3849C689.508 64.2256 689.701 64.1022 689.913 64.0227C690.125 63.9433 690.352 63.9096 690.578 63.924H693.087C693.508 63.9256 693.922 64.0308 694.292 64.2302C694.662 64.4297 694.976 64.7171 695.206 65.0668L732.509 116.759L769.84 65.0668C770.059 64.7188 770.363 64.4315 770.724 64.2317C771.084 64.0318 771.49 63.926 771.904 63.924" fill="white"/>
<path d="M901.764 66.9341V145.528C901.756 145.972 901.575 146.395 901.259 146.709C900.942 147.023 900.515 147.203 900.068 147.21H892.297C891.849 147.203 891.422 147.023 891.106 146.709C890.789 146.395 890.608 145.972 890.601 145.528V109.722H839.189V145.528C839.182 145.972 839.001 146.395 838.684 146.709C838.368 147.023 837.941 147.203 837.493 147.21H829.722C829.274 147.203 828.848 147.023 828.531 146.709C828.215 146.395 828.034 145.972 828.026 145.528V66.9341C828.034 66.4901 828.215 66.0663 828.531 65.7523C828.848 65.4383 829.274 65.2587 829.722 65.2515H837.493C837.941 65.2587 838.368 65.4383 838.684 65.7523C839.001 66.0663 839.182 66.4901 839.189 66.9341V100.321H890.601V66.9341C890.608 66.4901 890.789 66.0663 891.106 65.7523C891.422 65.4383 891.849 65.2587 892.297 65.2515H900.068C900.515 65.2587 900.942 65.4383 901.259 65.7523C901.575 66.0663 901.756 66.4901 901.764 66.9341Z" fill="white"/>
<path d="M1033.88 106.232C1033.8 114.479 1031.26 122.518 1026.59 129.337C1021.92 136.156 1015.31 141.449 1007.61 144.551C999.91 147.652 991.457 148.423 983.315 146.766C975.174 145.109 967.709 141.098 961.86 135.238C956.012 129.379 952.041 121.933 950.449 113.838C948.856 105.744 949.713 97.3628 952.912 89.7507C956.11 82.1386 961.507 75.6361 968.423 71.062C975.338 66.488 983.463 64.0471 991.774 64.0467C997.359 63.9688 1002.9 65.0097 1008.07 67.1072C1013.24 69.2047 1017.94 72.3157 1021.87 76.254C1025.8 80.1924 1028.89 84.8772 1030.95 90.0281C1033.02 95.179 1034.01 100.69 1033.88 106.232V106.232ZM1022.2 106.232C1022.2 86.8185 1009.44 73.4484 991.774 73.4484C974.104 73.4484 961.345 86.8185 961.345 106.232C961.345 125.645 974.104 139.016 991.774 139.016C1009.44 139.016 1022.2 125.645 1022.2 106.232Z" fill="white"/>
<path d="M1140.24 139.484V145.528C1140.26 145.752 1140.22 145.978 1140.14 146.188C1140.06 146.399 1139.94 146.59 1139.78 146.749C1139.62 146.909 1139.42 147.032 1139.21 147.112C1139 147.191 1138.77 147.225 1138.55 147.21H1083.48C1083.03 147.203 1082.61 147.023 1082.29 146.709C1081.97 146.395 1081.79 145.972 1081.79 145.528V66.9341C1081.79 66.4901 1081.97 66.0663 1082.29 65.7523C1082.61 65.4383 1083.03 65.2587 1083.48 65.2515H1091.25C1091.7 65.2605 1092.12 65.4409 1092.44 65.7547C1092.75 66.0685 1092.93 66.4913 1092.94 66.9341V137.802H1138.57C1138.79 137.787 1139.02 137.821 1139.23 137.9C1139.45 137.98 1139.64 138.103 1139.8 138.262C1139.96 138.422 1140.08 138.613 1140.16 138.824C1140.24 139.034 1140.28 139.259 1140.26 139.484" fill="white"/>
<path d="M1247.52 139.476V145.519C1247.54 145.744 1247.5 145.969 1247.42 146.18C1247.34 146.391 1247.22 146.582 1247.06 146.741C1246.9 146.9 1246.7 147.024 1246.49 147.103C1246.28 147.183 1246.05 147.216 1245.83 147.202H1186.36C1185.91 147.195 1185.49 147.015 1185.17 146.701C1184.85 146.387 1184.67 145.963 1184.66 145.519V66.9258C1184.67 66.4817 1184.85 66.0579 1185.17 65.7439C1185.49 65.4299 1185.91 65.2503 1186.36 65.2431H1244.48C1244.7 65.2287 1244.93 65.2624 1245.14 65.3418C1245.35 65.4213 1245.55 65.5447 1245.71 65.704C1245.87 65.8632 1245.99 66.0545 1246.07 66.2652C1246.15 66.4759 1246.19 66.7011 1246.17 66.9258V72.9693C1246.19 73.194 1246.15 73.4192 1246.07 73.6299C1245.99 73.8405 1245.87 74.0319 1245.71 74.1911C1245.55 74.3503 1245.35 74.4737 1245.14 74.5532C1244.93 74.6327 1244.7 74.6663 1244.48 74.6519H1195.81V100.312H1239.06C1239.29 100.298 1239.51 100.331 1239.72 100.408C1239.93 100.486 1240.12 100.606 1240.28 100.762C1240.44 100.917 1240.56 101.104 1240.65 101.311C1240.73 101.517 1240.76 101.738 1240.75 101.96V108.038C1240.77 108.262 1240.73 108.486 1240.65 108.695C1240.57 108.904 1240.45 109.094 1240.29 109.253C1240.13 109.411 1239.94 109.534 1239.73 109.614C1239.52 109.693 1239.29 109.727 1239.06 109.714H1195.81V137.793H1245.83C1246.06 137.779 1246.29 137.812 1246.5 137.892C1246.71 137.971 1246.9 138.095 1247.06 138.254C1247.22 138.413 1247.35 138.605 1247.43 138.815C1247.51 139.026 1247.54 139.251 1247.53 139.476" fill="white"/>
<path d="M108.759 218.223C79.9365 218.204 52.2989 206.753 31.9095 186.382C11.5201 166.011 0.0443073 138.384 0 109.562C0.044301 80.7387 11.5195 53.1098 31.9085 32.7365C52.2975 12.3632 79.9353 0.909084 108.759 0.886963C137.582 0.909084 165.219 12.3632 185.608 32.7365C205.997 53.1098 217.472 80.7387 217.517 109.562C217.472 138.384 205.997 166.011 185.608 186.382C165.218 206.753 137.581 218.204 108.759 218.223ZM108.759 9.253C82.1529 9.27144 56.641 19.843 37.8201 38.6482C18.9993 57.4534 8.40666 82.9564 8.36604 109.562C8.39191 136.171 18.9804 161.681 37.8048 180.487C56.6292 199.293 82.1497 209.857 108.759 209.857C135.367 209.857 160.888 199.293 179.712 180.487C198.537 161.681 209.125 136.171 209.151 109.562C209.11 82.9564 198.517 57.4534 179.697 38.6482C160.876 19.843 135.364 9.27144 108.759 9.253V9.253Z" fill="white"/>
<path d="M122.508 201.033C98.6292 201.014 75.7327 191.525 58.8413 174.647C41.9498 157.768 32.4429 134.879 32.406 111C32.4429 87.1213 41.9498 64.232 58.8413 47.3536C75.7327 30.4752 98.6292 20.986 122.508 20.9675C146.387 20.986 169.283 30.4752 186.175 47.3536C203.066 64.232 212.573 87.1213 212.61 111C212.573 134.879 203.066 157.768 186.175 174.647C169.283 191.525 146.387 201.014 122.508 201.033ZM122.508 27.4652C100.354 27.4836 79.1113 36.2888 63.4406 51.9491C47.7699 67.6093 38.9507 88.8459 38.9175 111C38.9544 133.152 47.7754 154.385 63.4457 170.042C79.116 185.7 100.356 194.503 122.508 194.521C144.66 194.503 165.9 185.7 181.57 170.042C197.241 154.385 206.062 133.152 206.099 111C206.062 88.8483 197.241 67.6151 181.57 51.9579C165.9 36.3007 144.66 27.4976 122.508 27.4792V27.4652Z" fill="white"/>
<path d="M136.259 183.85C117.324 183.835 99.1687 176.311 85.7748 162.927C72.3809 149.544 64.8423 131.394 64.8127 112.459C64.8423 93.525 72.3809 75.3754 85.7748 61.9919C99.1687 48.6085 117.324 41.0841 136.259 41.0693C155.194 41.0804 173.352 48.6036 186.746 61.9878C200.141 75.3721 207.679 93.5239 207.704 112.459C207.675 131.394 200.136 149.544 186.742 162.927C173.348 176.311 155.193 183.835 136.259 183.85V183.85ZM136.259 45.7124C118.555 45.7235 101.578 52.7575 89.0537 65.271C76.5297 77.7845 69.4815 94.7553 69.4557 112.459C69.4852 130.161 76.5352 147.128 89.0588 159.639C101.582 172.149 118.557 179.182 136.259 179.193C153.96 179.182 170.935 172.149 183.459 159.639C195.982 147.128 203.032 130.161 203.062 112.459C203.036 94.7553 195.987 77.7845 183.463 65.271C170.939 52.7575 153.963 45.7235 136.259 45.7124V45.7124Z" fill="white"/>
<path d="M150.009 166.662C136.019 166.651 122.604 161.091 112.708 151.203C102.812 141.314 97.2416 127.904 97.2195 113.914C97.2379 99.9215 102.806 86.5078 112.703 76.6163C122.6 66.7247 136.017 61.1633 150.009 61.1522C164.002 61.1633 177.418 66.7247 187.315 76.6163C197.212 86.5078 202.78 99.9215 202.799 113.914C202.776 127.904 197.207 141.314 187.31 151.203C177.414 161.091 163.999 166.651 150.009 166.662V166.662ZM150.009 63.9409C136.756 63.952 124.049 69.2195 114.675 78.5881C105.301 87.9567 100.027 100.661 100.008 113.914C100.03 127.164 105.307 139.865 114.68 149.231C124.053 158.596 136.759 163.862 150.009 163.873C163.259 163.862 175.965 158.596 185.338 149.231C194.711 139.865 199.988 127.164 200.01 113.914C199.991 100.661 194.717 87.9567 185.343 78.5881C175.97 69.2195 163.262 63.952 150.009 63.9409Z" fill="white"/>
</svg>
