<svg width="1527" height="268" viewBox="0 0 1527 268" fill="none" xmlns="http://www.w3.org/2000/svg">
<path d="M495.386 82.2697L460.478 180.468C460.318 180.942 460.003 181.349 459.583 181.625C459.164 181.901 458.663 182.029 458.162 181.989H455.517C455.014 182.009 454.517 181.874 454.095 181.601C453.672 181.329 453.345 180.933 453.158 180.468L426.988 111.598L400.862 180.468C400.688 180.933 400.37 181.331 399.954 181.605C399.537 181.878 399.044 182.013 398.546 181.989H395.858C395.358 182.017 394.863 181.884 394.446 181.61C394.029 181.336 393.712 180.935 393.542 180.468L358.634 82.3041C358.098 80.7822 358.677 79.8364 360.164 79.8364H370.967C371.476 79.7852 371.987 79.9081 372.416 80.1848C372.845 80.4615 373.166 80.8754 373.326 81.3583L398.208 155.705L423.505 87.6176C423.687 87.1488 424.013 86.7491 424.437 86.4758C424.861 86.2024 425.36 86.0694 425.865 86.0958H428.138C428.636 86.0707 429.13 86.2048 429.547 86.4786C429.964 86.7524 430.281 87.1515 430.454 87.6176L456.503 155.705L480.806 81.3583C480.966 80.8754 481.288 80.4615 481.717 80.1848C482.146 79.9081 482.656 79.7852 483.165 79.8364H493.804C495.334 79.8364 495.913 80.7822 495.377 82.2697" fill="#0F0C48"/>
<path d="M647.31 130.091C647.213 140.205 644.11 150.064 638.391 158.426C632.672 166.789 624.594 173.28 615.173 177.084C605.753 180.887 595.412 181.832 585.453 179.8C575.494 177.768 566.362 172.849 559.207 165.663C552.052 158.478 547.195 149.346 545.247 139.42C543.299 129.493 544.348 119.215 548.261 109.879C552.173 100.544 558.775 92.5698 567.235 86.9604C575.695 81.351 585.634 78.3575 595.8 78.357C602.633 78.2615 609.415 79.538 615.74 82.1103C622.066 84.6826 627.804 88.4978 632.613 93.3276C637.422 98.1574 641.202 103.903 643.728 110.22C646.253 116.536 647.471 123.295 647.31 130.091V130.091ZM633.024 130.091C633.024 106.283 617.416 89.887 595.8 89.887C574.185 89.887 558.577 106.283 558.577 130.091C558.577 153.899 574.185 170.296 595.8 170.296C617.416 170.296 633.024 153.899 633.024 130.091Z" fill="#0F0C48"/>
<path d="M783.722 176.272C784.051 176.651 784.257 177.12 784.312 177.618C784.367 178.116 784.27 178.619 784.032 179.06C783.794 179.501 783.427 179.861 782.98 180.091C782.533 180.32 782.026 180.41 781.526 180.347H771.795C771.478 180.338 771.169 180.25 770.894 180.093C770.62 179.935 770.389 179.712 770.222 179.444L745.798 142.782H719.551V178.292C719.544 178.837 719.323 179.358 718.936 179.744C718.548 180.13 718.024 180.349 717.476 180.356H707.969C707.423 180.347 706.901 180.126 706.516 179.741C706.13 179.356 705.91 178.836 705.904 178.292V81.8999C705.913 81.3569 706.133 80.8384 706.518 80.4536C706.903 80.0687 707.424 79.8475 707.969 79.8364H745.357C771.527 79.8364 784.448 93.5159 784.448 111.305C784.607 118.374 782.219 125.266 777.716 130.736C773.213 136.207 766.892 139.894 759.894 141.132L783.722 176.272ZM742.687 131.253C763.265 131.253 770.179 122.766 770.179 111.314C770.179 99.8612 763.265 91.375 742.687 91.375H719.542V131.253H742.687Z" fill="#0F0C48"/>
<path d="M944.499 78.2196H947.601C947.878 78.2019 948.156 78.2432 948.416 78.3407C948.676 78.4381 948.911 78.5895 949.108 78.7848C949.304 78.98 949.456 79.2146 949.554 79.473C949.652 79.7314 949.694 80.0076 949.676 80.2831V178.301C949.694 178.576 949.652 178.852 949.554 179.111C949.456 179.369 949.304 179.604 949.108 179.799C948.911 179.994 948.676 180.146 948.416 180.243C948.156 180.34 947.878 180.382 947.601 180.364H938.095C937.818 180.382 937.54 180.34 937.28 180.243C937.021 180.146 936.785 179.994 936.589 179.799C936.392 179.604 936.24 179.369 936.142 179.111C936.044 178.852 936.003 178.576 936.02 178.301V108.717L897.717 163.873C897.591 164.146 897.39 164.377 897.136 164.539C896.883 164.701 896.587 164.787 896.286 164.787C895.985 164.787 895.69 164.701 895.436 164.539C895.183 164.377 894.981 164.146 894.856 163.873L856.561 108.717V178.292C856.578 178.567 856.537 178.844 856.439 179.102C856.341 179.36 856.189 179.595 855.992 179.79C855.796 179.986 855.56 180.137 855.301 180.234C855.041 180.332 854.763 180.373 854.486 180.355H844.98C844.703 180.373 844.425 180.332 844.165 180.234C843.906 180.137 843.67 179.986 843.473 179.79C843.277 179.595 843.125 179.36 843.027 179.102C842.929 178.844 842.888 178.567 842.905 178.292V80.2745C842.888 79.999 842.929 79.7228 843.027 79.4644C843.125 79.2061 843.277 78.9714 843.473 78.7762C843.67 78.5809 843.906 78.4295 844.165 78.3321C844.425 78.2346 844.703 78.1933 844.98 78.211H848.048C848.563 78.2129 849.069 78.3419 849.522 78.5865C849.974 78.8311 850.359 79.1837 850.64 79.6125L896.273 143.006L941.941 79.6125C942.208 79.1858 942.58 78.8334 943.021 78.5883C943.462 78.3432 943.959 78.2134 944.464 78.211" fill="#0F0C48"/>
<path d="M1103.33 81.8999V178.284C1103.32 178.828 1103.1 179.348 1102.71 179.733C1102.33 180.118 1101.8 180.338 1101.26 180.347H1091.75C1091.2 180.338 1090.68 180.118 1090.29 179.733C1089.9 179.348 1089.68 178.828 1089.67 178.284V134.374H1026.78V178.284C1026.77 178.828 1026.55 179.348 1026.16 179.733C1025.78 180.118 1025.26 180.338 1024.71 180.347H1015.2C1014.65 180.338 1014.13 180.118 1013.74 179.733C1013.36 179.348 1013.14 178.828 1013.13 178.284V81.8999C1013.14 81.3554 1013.36 80.8357 1013.74 80.4506C1014.13 80.0655 1014.65 79.8453 1015.2 79.8364H1024.71C1025.26 79.8453 1025.78 80.0655 1026.16 80.4506C1026.55 80.8357 1026.77 81.3554 1026.78 81.8999V122.844H1089.67V81.8999C1089.68 81.3554 1089.9 80.8357 1090.29 80.4506C1090.68 80.0655 1091.2 79.8453 1091.75 79.8364H1101.26C1101.8 79.8453 1102.33 80.0655 1102.71 80.4506C1103.1 80.8357 1103.32 81.3554 1103.33 81.8999Z" fill="#0F0C48"/>
<path d="M1264.94 130.091C1264.84 140.205 1261.74 150.064 1256.02 158.426C1250.3 166.789 1242.22 173.28 1232.8 177.084C1223.38 180.887 1213.04 181.832 1203.08 179.8C1193.12 177.768 1183.99 172.849 1176.84 165.663C1169.68 158.478 1164.82 149.346 1162.88 139.42C1160.93 129.493 1161.98 119.215 1165.89 109.879C1169.8 100.544 1176.4 92.5698 1184.86 86.9604C1193.32 81.351 1203.26 78.3575 1213.43 78.357C1220.26 78.2615 1227.04 79.538 1233.37 82.1103C1239.69 84.6826 1245.43 88.4978 1250.24 93.3276C1255.05 98.1574 1258.83 103.903 1261.36 110.22C1263.88 116.536 1265.1 123.295 1264.94 130.091V130.091ZM1250.65 130.091C1250.65 106.283 1235.04 89.887 1213.43 89.887C1191.81 89.887 1176.2 106.283 1176.2 130.091C1176.2 153.899 1191.81 170.296 1213.43 170.296C1235.04 170.296 1250.65 153.899 1250.65 130.091Z" fill="#0F0C48"/>
<path d="M1395.05 170.872V178.284C1395.07 178.559 1395.03 178.835 1394.93 179.094C1394.83 179.352 1394.68 179.587 1394.48 179.782C1394.29 179.977 1394.05 180.129 1393.79 180.226C1393.53 180.324 1393.26 180.365 1392.98 180.347H1325.62C1325.07 180.338 1324.55 180.118 1324.16 179.733C1323.77 179.348 1323.55 178.828 1323.54 178.284V81.8999C1323.55 81.3554 1323.77 80.8357 1324.16 80.4506C1324.55 80.0655 1325.07 79.8453 1325.62 79.8364H1335.12C1335.67 79.8475 1336.19 80.0687 1336.58 80.4536C1336.96 80.8384 1337.18 81.3569 1337.19 81.8999V168.809H1393C1393.28 168.791 1393.56 168.832 1393.82 168.93C1394.08 169.027 1394.31 169.179 1394.51 169.374C1394.71 169.569 1394.86 169.804 1394.96 170.062C1395.05 170.32 1395.1 170.597 1395.08 170.872" fill="#0F0C48"/>
<path d="M1526.3 170.872V178.283C1526.32 178.559 1526.28 178.835 1526.18 179.093C1526.08 179.352 1525.93 179.586 1525.73 179.782C1525.53 179.977 1525.3 180.128 1525.04 180.226C1524.78 180.323 1524.5 180.364 1524.22 180.347H1451.48C1450.93 180.338 1450.41 180.118 1450.02 179.733C1449.64 179.347 1449.41 178.828 1449.41 178.283V81.8994C1449.41 81.3549 1449.64 80.8352 1450.02 80.4501C1450.41 80.065 1450.93 79.8447 1451.48 79.8359H1522.57C1522.85 79.8182 1523.13 79.8595 1523.39 79.9569C1523.65 80.0544 1523.88 80.2058 1524.08 80.401C1524.28 80.5963 1524.43 80.8309 1524.53 81.0893C1524.62 81.3477 1524.67 81.6238 1524.65 81.8994V89.3109C1524.67 89.5865 1524.62 89.8627 1524.53 90.121C1524.43 90.3794 1524.28 90.614 1524.08 90.8093C1523.88 91.0045 1523.65 91.1559 1523.39 91.2534C1523.13 91.3508 1522.85 91.3921 1522.57 91.3744H1463.04V122.843H1515.95C1516.23 122.826 1516.5 122.866 1516.76 122.961C1517.01 123.056 1517.25 123.204 1517.44 123.394C1517.64 123.585 1517.79 123.814 1517.89 124.068C1517.99 124.321 1518.03 124.592 1518.02 124.864V132.318C1518.04 132.592 1517.99 132.867 1517.9 133.123C1517.8 133.38 1517.65 133.613 1517.45 133.807C1517.26 134.002 1517.02 134.152 1516.76 134.25C1516.51 134.347 1516.23 134.389 1515.95 134.373H1463.04V168.808H1524.23C1524.51 168.79 1524.79 168.832 1525.05 168.929C1525.31 169.027 1525.54 169.178 1525.74 169.373C1525.94 169.569 1526.09 169.803 1526.19 170.062C1526.28 170.32 1526.33 170.596 1526.31 170.872" fill="#0F0C48"/>
<path d="M133.259 267.436C98.0015 267.413 64.1924 253.37 39.2501 228.388C14.3079 203.406 0.269533 169.525 0.215332 134.179C0.269525 98.8314 14.3071 64.9485 39.2489 39.9636C64.1907 14.9787 97.9999 0.931791 133.259 0.904663C168.519 0.931791 202.328 14.9787 227.269 39.9636C252.211 64.9485 266.249 98.8314 266.303 134.179C266.249 169.525 252.211 203.406 227.269 228.388C202.326 253.37 168.517 267.413 133.259 267.436ZM133.259 11.1644C100.713 11.187 69.5041 24.1516 46.4806 47.2134C23.4571 70.2752 10.4992 101.551 10.4495 134.179C10.4811 166.811 23.434 198.095 46.4619 221.158C69.4897 244.222 100.709 257.176 133.259 257.176C165.81 257.176 197.029 244.222 220.057 221.158C243.085 198.095 256.037 166.811 256.069 134.179C256.019 101.551 243.061 70.2752 220.038 47.2134C197.014 24.1516 165.806 11.187 133.259 11.1644V11.1644Z" fill="#0F0C48"/>
<path d="M150.08 246.351C120.869 246.329 92.8599 234.692 72.1966 213.993C51.5333 193.294 39.9036 165.223 39.8584 135.939C39.9036 106.655 51.5333 78.585 72.1966 57.8861C92.8599 37.1872 120.869 25.5499 150.08 25.5273C179.291 25.5499 207.3 37.1872 227.964 57.8861C248.627 78.585 260.257 106.655 260.302 135.939C260.257 165.223 248.627 193.294 227.964 213.993C207.3 234.692 179.291 246.329 150.08 246.351ZM150.08 33.4958C122.979 33.5184 96.9929 44.3167 77.823 63.5217C58.6531 82.7268 47.8645 108.77 47.8239 135.939C47.869 163.106 58.6598 189.145 77.8292 208.346C96.9987 227.548 122.982 238.343 150.08 238.366C177.178 238.343 203.161 227.548 222.331 208.346C241.5 189.145 252.291 163.106 252.336 135.939C252.291 108.773 241.5 82.7339 222.331 63.5326C203.161 44.3312 177.178 33.5355 150.08 33.5129V33.4958Z" fill="#0F0C48"/>
<path d="M166.895 225.285C143.732 225.267 121.523 216.039 105.138 199.626C88.7532 183.213 79.5312 160.955 79.4951 137.735C79.5312 114.514 88.7532 92.2565 105.138 75.8436C121.523 59.4307 143.732 50.2031 166.895 50.1851C190.059 50.1986 212.271 59.4247 228.656 75.8386C245.042 92.2525 254.262 114.513 254.294 137.735C254.258 160.955 245.036 183.213 228.651 199.626C212.266 216.039 190.057 225.267 166.895 225.285V225.285ZM166.895 55.8791C145.237 55.8927 124.47 64.5189 109.149 79.8649C93.8285 95.2109 85.2064 116.023 85.1748 137.735C85.2109 159.443 93.8352 180.251 109.155 195.594C124.475 210.936 145.24 219.56 166.895 219.573C188.549 219.56 209.314 210.936 224.634 195.594C239.954 180.251 248.579 159.443 248.615 137.735C248.583 116.023 239.961 95.2109 224.64 79.8649C209.32 64.5189 188.552 55.8927 166.895 55.8791V55.8791Z" fill="#0F0C48"/>
<path d="M183.715 204.2C166.601 204.187 150.192 197.369 138.085 185.242C125.979 173.115 119.165 156.67 119.138 139.513C119.161 122.353 125.973 105.903 138.079 93.7724C150.186 81.6418 166.599 74.8216 183.715 74.808C200.832 74.8216 217.245 81.6418 229.352 93.7724C241.459 105.903 248.27 122.353 248.293 139.513C248.266 156.67 241.452 173.115 229.346 185.242C217.24 197.369 200.83 204.187 183.715 204.2V204.2ZM183.715 78.2279C167.503 78.2415 151.959 84.7014 140.492 96.1906C129.025 107.68 122.572 123.26 122.55 139.513C122.577 155.763 129.031 171.338 140.498 182.824C151.964 194.309 167.506 200.767 183.715 200.781C199.925 200.767 215.467 194.309 226.933 182.824C238.4 171.338 244.854 155.763 244.881 139.513C244.859 123.26 238.407 107.68 226.94 96.1906C215.473 84.7014 199.928 78.2415 183.715 78.2279Z" fill="#0F0C48"/>
</svg>
